HIERARCHY
ROOT Spine
{
    OFFSET 0.0 0.0 -0.0
    CHANNELS 6 Xposition Yposition Zposition Zrotation Xrotation Yrotation
    JOINT ShoulderCenter
    {
        OFFSET 0.0 30.930742263793945 0.0
        CHANNELS 3 Zrotation Xrotation Yrotation
        JOINT LeftShoulder
        {
            OFFSET 18.556081771850586 0.0 0.0
            CHANNELS 3 Zrotation Xrotation Yrotation
            JOINT LeftElbow
            {
                OFFSET 24.320457458496094 0.0 0.0
                CHANNELS 3 Zrotation Xrotation Yrotation
                JOINT LeftHand
                {
                    OFFSET 29.86341667175293 0.0 0.0
                    CHANNELS 3 Zrotation Xrotation Yrotation
                    End Site
                    {
                        OFFSET 11.945365905761719 0.0 0.0
                    }
                }
            }
        }
        JOINT RightShoulder
        {
            OFFSET -18.556081771850586 0.0 0.0
            CHANNELS 3 Zrotation Xrotation Yrotation
            JOINT RightElbow
            {
                OFFSET -24.320457458496094 0.0 0.0
                CHANNELS 3 Zrotation Xrotation Yrotation
                JOINT RightHand
                {
                    OFFSET -29.86341667175293 0.0 0.0
                    CHANNELS 3 Zrotation Xrotation Yrotation
                    End Site
                    {
                        OFFSET -11.945365905761719 0.0 0.0
                    }
                }
            }
        }
        End Site
        {
            OFFSET 0.0 12.372296333312988 0.0
        }
    }
    JOINT LeftHip
    {
        OFFSET 19.479812126625117 -19.479812126625117 0.0
        CHANNELS 3 Zrotation Xrotation Yrotation
        JOINT LeftKnee
        {
            OFFSET 0.0 -35.15449523925781 0.0
            CHANNELS 3 Zrotation Xrotation Yrotation
            JOINT LeftFoot
            {
                OFFSET 0.0 -38.2633056640625 0.0
                CHANNELS 3 Zrotation Xrotation Yrotation
                End Site
                {
                    OFFSET 0.0 0.0 15.305322647094727
                }
            }
        }
    }
    JOINT RightHip
    {
        OFFSET -19.479812126625117 -19.479812126625117 0.0
        CHANNELS 3 Zrotation Xrotation Yrotation
        JOINT RightKnee
        {
            OFFSET 0.0 -35.15449523925781 0.0
            CHANNELS 3 Zrotation Xrotation Yrotation
            JOINT RightFoot
            {
                OFFSET 0.0 -38.2633056640625 0.0
                CHANNELS 3 Zrotation Xrotation Yrotation
                End Site
                {
                    OFFSET 0.0 0.0 15.305322647094727
                }
            }
        }
    }
}
MOTION
Frames: 9
Frame Time: 0.03333333333333333
21.5 25.700000762939453 18.700000762939453 18.19916391419639 3.9083878632689895 -91.68333399409127 -5.966656630845454e-07 -8.40302808740537e-07 0.9605670138592035 104.84194113613256 2.5256445782093073 172.95503459298564 -3.597832702337944e-06 -7.531389543970356e-07 60.20089000122682 0.0 0.0 -6.3611093629270335e-15 -126.45798482054035 -4.654052691698793 179.3753455210357 -3.948992987829702e-06 1.1384149044408947e-06 -66.48579842915026 -3.1805546814635168e-15 8.827812596100317e-32 -3.1805546814635168e-15 -30.760272924286394 -60.32718664669531 8.003239514488572 34.17534308528197 45.13429854565692 -42.290349399921126 -1.5902773407317584e-15 1.5902773407317584e-15 5.9635400277440935e-15 15.371972952515273 -2.8936549018027637 11.943979265584785 -3.638446460056612 -12.152137808601141 -9.51340811055736 1.7241821476758432e-33 -7.951386703658792e-16 2.4848083448933725e-16
17.899999618530273 29.899999618530273 19.30000114440918 19.967187384496988 4.092456477536777 -92.587991576494 1.3714507043655614e-06 -1.084997213503348e-06 0.9197461478171741 104.85765026504822 3.001179832457406 175.50126456476784 4.473101255603952e-06 4.726208275414003e-07 61.24114863972251 0.0 0.0 6.361109362927032e-15 -126.34099907470808 -4.739978352248341 -177.87455744757867 7.115435996109045e-06 -4.858316333373544e-06 -66.86503887464129 -1.5902773407317584e-15 -6.3611093629270335e-15 -8.827812596100317e-32 -22.147544503456277 -55.49013272573436 15.083491074360682 24.662142723436514 38.947809495549535 -35.50970566990792 1.5902773407317584e-15 -7.951386703658794e-16 -8.94531004161614e-15 13.456937520969646 -7.576767180692214 8.557209323755641 -5.144475449155167 -6.154993021654863 -5.471111459949408 7.951386703658792e-16 -4.207004440329057e-32 -6.0629323615398285e-15
14.699999809265137 33.099998474121094 19.69999885559082 20.79632570382802 3.9131407249281005 -94.51915350831693 7.052410452587083e-07 2.952692005050492e-07 1.1245567448900162 105.07856297592909 4.133441515353474 177.12918894064708 3.387201284716286e-06 -5.830786805614405e-07 61.27301742888841 6.3611093629270335e-15 -3.531125038440127e-31 -6.3611093629270335e-15 -126.54446871152392 -5.775400330412765 -175.40788215859095 1.5269992343111266e-06 2.1353145431207963e-06 -65.19735657544608 -1.590277340731758e-15 -7.951386703658792e-15 6.3611093629270335e-15 -15.363737959085142 -49.0565158769725 17.757112326355507 14.524561255542729 32.678602632427896 -28.03777186477806 7.951386703658792e-16 -1.5902773407317584e-15 1.1034765745125397e-32 10.456941394561706 -18.996581798103442 -0.5966235579540303 -1.8703930200008856 16.765475028017697 14.581267706256744 1.5902773407317584e-15 -2.4828222926532145e-32 -1.7890620083232284e-15
11.800000190734863 34.79999923706055 19.799999237060547 20.73026225985803 4.086454857326537 -95.7280268204985 5.975097935807565e-07 6.958788837933477e-07 0.3931973975070876 105.97791251101377 4.870376527406044 178.40143512453534 -1.2537278274813166e-07 3.5719328651760907e-07 60.430388420987725 0.0 0.0 0.0 -125.36878159047578 -4.879290897520707 -172.40551802518962 -3.0806834087940108e-06 -4.217220184209671e-06 -62.123271241445345 4.770832022195274e-15 -1.590277340731758e-15 6.361109362927033e-15 -12.08727244811009 -41.7914767675658 13.28768299851206 5.766006607589249 27.029154237034117 -20.470229280447555 -2.896626008095417e-32 2.385416011097637e-15 1.3914926731402884e-15 7.147490362492071 -32.23462486144741 -13.952011600423504 -5.244108973284373 44.675509130967285 38.7745467357195 -3.1805546814635168e-15 2.2069531490250793e-32 -7.951386703658792e-16
8.699999809265137 35.79999923706055 19.69999885559082 19.728880847970046 4.084500896800057 -96.06141226682979 -2.1543044368326853e-06 9.823882647955786e-07 -0.7678972142229971 106.88894524217375 4.946165221001736 178.17148307943168 4.658407151288555e-06 5.1637539612346654e-09 61.52796647261834 -3.180554681463516e-15 0.0 0.0 -124.23972878879698 -2.243887714083427 -168.46647386705573 -1.6380206566221036e-06 3.281563844187651e-06 -58.2217795731885 0.0 0.0 0.0 -10.663805134805418 -35.684394560321955 9.038223418177608 1.6573812701390667 23.283043887910196 -16.61279652823638 1.5902773407317582e-15 1.241411146326607e-31 8.945310041616139e-15 4.284701173059886 -43.621237844425686 -26.546574253690498 -22.381201517604104 61.00240572845187 61.70460203100282 0.0 0.0 -7.951386703658791e-16
5.400000095367432 36.19999694824219 19.400001525878906 18.49359121260915 3.8884734888259462 -96.47362279263253 -1.7213578161620546e-06 1.233622295608997e-06 -0.9106373856445499 107.47732212339183 4.807505393273041 177.54516007782766 -8.23832960784091e-07 -2.8679679204843677e-06 61.99080965284092 -3.1805546814635168e-15 6.3611093629270335e-15 -3.1805546814635168e-15 -123.96885262585572 0.26279499440078913 -164.24952916931116 -3.393719447421567e-07 3.565892816758608e-07 -52.54324110885428 -3.1805546814635168e-15 -3.1805546814635168e-15 6.3611093629270335e-15 -9.498125237741933 -30.986086983575895 6.465206714000581 -0.25375821424287043 21.968306735496235 -15.794299350385538 7.951386703658791e-16 -1.5902773407317584e-15 -6.957463365701443e-15 4.649973199897678 -50.71676589032099 -30.894921177009525 -32.51030416941051 60.06492630482537 68.45261803001843 3.1805546814635164e-15 3.1805546814635164e-15 1.9878466759146976e-15
2.0999999046325684 36.099998474121094 18.899999618530273 17.553542673217184 4.0808839133674875 -96.68854508059943 5.097258540805107e-07 1.1955200531273934e-06 -0.9526947566396593 108.59626526177827 5.613609122309404 176.41809717051854 -6.456717104873779e-07 2.6977488391199833e-06 63.56351465320448 3.1805546814635168e-15 8.827812596100317e-32 3.1805546814635168e-15 -123.60372671892428 2.755504044387398 -161.2600367440829 -7.262034411885054e-07 1.654270766571496e-06 -45.167734657099615 -3.1805546814635168e-15 -3.1805546814635168e-15 -8.827812596100317e-32 -8.58536131082523 -27.73706918025887 3.87312315205578 -1.5723643277582737 23.33439326335256 -16.464249442416197 3.578124016646457e-15 -1.924187276806241e-31 -6.1623246953355635e-15 7.000461830201928 -52.67919411686 -30.045450021383942 -24.977343021224115 47.9857412327698 54.21057654394253 -3.1805546814635168e-15 -1.4758999184105217e-31 5.317489858071817e-15
-1.5 35.10000228881836 18.19999885559082 15.613618796593528 4.080605235151514 -96.15724775507766 -1.7639832852668745e-06 2.2033013711553117e-06 -1.010577283380936 110.15837085598704 6.52312864099608 175.11965645405445 1.0683515469952449e-06 1.7839552577108214e-06 65.4810774656931 3.1805546814635168e-15 -6.361109362927033e-15 6.361109362927033e-15 -124.42098502744233 4.38494705693456 -158.50545479716789 -1.9750470555345811e-07 -4.218732443551166e-06 -37.48383086915949 -3.1805546814635164e-15 0.0 0.0 -8.664116871122728 -24.097927451649905 1.0530196446863744 -2.9454652745922827 26.419493013909445 -17.30479153676304 2.9817700138720468e-15 -1.987846675914697e-15 8.15017137125026e-15 8.217621644742135 -47.634594724634205 -25.855377708383333 -14.781178538780065 30.149081102143423 33.9181990843586 0.0 0.0 9.131670667483144e-15
-5.600000381469727 33.39999771118164 17.200000762939453 13.272344122050162 3.884646563291297 -94.98846057200353 2.398035490162154e-07 -1.4387638628383522e-07 -1.0813662160672128 114.09296809486763 9.053612094169413 173.09517410878752 1.0449820950073282e-06 -4.7672278041202045e-06 69.02896836203313 -1.7655625192200634e-31 -6.361109362927033e-15 -3.1805546814635164e-15 -126.54971038239871 6.34403840047846 -154.78096802448846 5.769113689211233e-07 1.0117973743992162e-07 -31.427434619076546 -3.1805546814635168e-15 -1.7655625192200634e-31 6.3611093629270335e-15 -9.34855144524892 -20.49909059898938 -1.6507007631646688 -4.4004270800478995 31.419802905636118 -18.484974083757187 3.1308585145656485e-15 -3.180554681463516e-15 -2.4848083448933718e-15 7.426129618274312 -39.804499710395994 -21.5148418492841 -9.253223883779219 14.152779159971741 17.239146228278926 2.3854160110976376e-15 4.965644585306429e-32 2.3854160110976376e-15
